<svg viewBox="0 0 23 23" fill="none" xmlns="http://www.w3.org/2000/svg">
<path d="M22.0709 10.5708H0.929074C0.415977 10.5708 0 10.9867 0 11.4999C0 12.013 0.415977 12.4289 0.929074 12.4289H22.0709C22.5841 12.4289 23 12.013 23 11.4999C23 10.9868 22.5841 10.5708 22.0709 10.5708Z" fill="#999999"/>
<path d="M22.0709 3.52344H0.929074C0.415977 3.52344 0 3.93941 0 4.45251C0 4.96561 0.415977 5.38159 0.929074 5.38159H22.0709C22.5841 5.38159 23 4.96561 23 4.45251C23 3.93941 22.5841 3.52344 22.0709 3.52344Z" fill="#999999"/>
<path d="M22.0709 17.6182H0.929074C0.415977 17.6182 0 18.0341 0 18.5472C0 19.0604 0.415977 19.4763 0.929074 19.4763H22.0709C22.5841 19.4763 23 19.0604 23 18.5472C23 18.0341 22.5841 17.6182 22.0709 17.6182Z" fill="#999999"/>
</svg>
